<?xml version="1.0" standalone="no"?>
<!DOCTYPE svg PUBLIC "-//W3C//DTD SVG 20010904//EN"
 "http://www.w3.org/TR/2001/REC-SVG-20010904/DTD/svg10.dtd">
<svg version="1.0" xmlns="http://www.w3.org/2000/svg"
 width="1393.000000pt" height="1393.000000pt" viewBox="0 0 1393.000000 1393.000000"
 preserveAspectRatio="xMidYMid meet">
<metadata>
Created by potrace 1.11, written by Peter Selinger 2001-2013
</metadata>
<g transform="translate(0.000000,1393.000000) scale(0.100000,-0.100000)"
fill="#000000" stroke="none">
<path d="M10463 12161 c-39 -58 -102 -144 -140 -191 -64 -80 -266 -289 -324
-337 -346 -279 -632 -410 -1114 -512 -44 -9 -189 -30 -314 -45 -219 -27 -779
-27 -1281 -1 -52 3 -138 7 -190 10 -463 25 -1059 24 -1303 -1 -81 -8 -151 -16
-167 -19 -8 -1 -42 -6 -75 -9 -33 -4 -67 -9 -75 -11 -8 -2 -32 -6 -53 -9 -93
-14 -341 -71 -427 -98 -164 -52 -291 -98 -305 -110 -5 -4 -15 -8 -22 -8 -7 0
-78 -32 -158 -71 -559 -272 -904 -680 -1034 -1224 -11 -44 -22 -98 -25 -120
-4 -23 -8 -51 -11 -64 -11 -60 -19 -189 -18 -326 1 -186 10 -280 44 -475 53
-306 164 -654 295 -928 l45 -93 52 30 c284 161 706 364 992 478 22 8 49 19 60
24 114 49 520 184 615 204 8 2 62 14 120 28 58 14 121 28 140 31 19 3 46 8 60
11 32 6 99 17 130 20 14 1 50 6 80 9 100 12 154 15 290 16 351 2 650 -71 910
-223 47 -28 87 -53 90 -56 3 -3 21 -17 40 -31 57 -40 90 -70 175 -157 165
-168 305 -400 395 -656 30 -84 84 -285 94 -347 3 -19 10 -62 16 -95 6 -33 13
-85 16 -115 3 -30 7 -72 9 -93 l5 -39 -73 7 c-39 4 -74 8 -77 10 -3 2 -36 6
-74 10 -37 3 -82 8 -100 10 -17 3 -65 7 -106 11 -41 3 -88 7 -105 10 -206 25
-1084 25 -1222 0 -10 -2 -49 -7 -88 -10 -38 -4 -81 -9 -95 -11 -14 -2 -47 -7
-75 -10 -27 -3 -61 -7 -75 -10 -14 -3 -41 -7 -60 -10 -45 -7 -100 -17 -125
-22 -11 -2 -40 -8 -65 -13 -483 -96 -981 -299 -1320 -539 -268 -189 -507 -440
-663 -693 -53 -86 -157 -289 -157 -307 0 -6 -4 -19 -10 -29 -10 -17 -31 -67
-36 -87 -1 -5 -14 -46 -28 -90 -30 -92 -72 -274 -81 -355 -4 -30 -8 -57 -10
-60 -14 -23 -21 -344 -11 -507 6 -103 9 -132 26 -233 5 -30 12 -71 15 -90 3
-19 11 -55 16 -80 6 -25 13 -55 15 -68 2 -12 20 -73 39 -135 232 -768 743
-1349 1420 -1617 83 -33 113 -43 230 -78 78 -24 219 -57 280 -66 22 -4 67 -11
100 -16 123 -19 227 -24 490 -25 243 0 457 8 525 20 14 2 52 6 85 10 33 3 87
10 120 15 33 5 78 12 100 16 37 5 148 26 204 38 372 80 747 248 938 420 l52
47 -5 -53 c-7 -95 -13 -146 -18 -180 -3 -18 -8 -49 -11 -68 -3 -19 -14 -78
-26 -130 -11 -52 -23 -106 -26 -120 l-5 -26 1260 1 c693 0 1263 3 1266 6 3 3
-1 28 -9 56 -14 46 -46 200 -60 283 -3 19 -8 42 -10 50 -2 8 -6 38 -10 65 -3
28 -8 61 -10 75 -2 14 -8 59 -14 100 -11 71 -14 101 -26 215 -7 58 -13 115
-20 165 -2 19 -7 67 -10 105 -3 39 -8 86 -10 105 -2 19 -6 73 -10 120 -3 47
-8 101 -10 120 -2 19 -7 76 -10 125 -3 50 -8 110 -10 135 -2 25 -7 92 -10 150
-3 58 -8 134 -10 170 -2 36 -7 119 -10 185 -4 66 -8 147 -10 180 -2 33 -7 137
-10 230 -4 94 -8 208 -10 255 -4 87 -15 469 -20 665 -3 105 -10 655 -21 1510
-2 215 -6 419 -8 455 -6 106 -17 262 -21 300 -2 19 -6 69 -10 110 -7 76 -9 93
-19 165 -4 22 -8 60 -11 85 -3 25 -7 56 -10 70 -3 14 -7 40 -10 58 -3 17 -7
47 -10 65 -3 17 -10 55 -15 82 -6 28 -13 61 -15 75 -3 14 -7 37 -10 51 -3 14
-20 87 -40 162 -131 511 -351 916 -592 1089 l-45 33 29 12 c15 7 35 12 43 13
9 0 20 4 25 9 6 5 28 14 50 21 69 22 285 132 374 191 257 169 430 397 515 680
58 194 82 348 102 664 5 78 6 1356 1 1361 -1 1 -34 -46 -74 -105z m-4725
-6651 c530 -77 939 -486 1020 -1020 14 -94 5 -321 -16 -418 -82 -364 -316
-659 -657 -830 -91 -45 -232 -85 -380 -107 -129 -19 -335 0 -485 46 -73 22
-79 25 -170 68 -318 153 -562 454 -641 790 -75 318 -22 649 150 922 176 281
453 471 781 538 104 21 293 26 398 11z"/>
</g>
</svg>
