<?xml version="1.0" encoding="UTF-8" standalone="no"?>
<!-- Created with Inkscape (http://www.inkscape.org/) -->

<svg
   xmlns:dc="http://purl.org/dc/elements/1.1/"
   xmlns:cc="http://creativecommons.org/ns#"
   xmlns:rdf="http://www.w3.org/1999/02/22-rdf-syntax-ns#"
   xmlns:svg="http://www.w3.org/2000/svg"
   xmlns="http://www.w3.org/2000/svg"
   xmlns:sodipodi="http://sodipodi.sourceforge.net/DTD/sodipodi-0.dtd"
   xmlns:inkscape="http://www.inkscape.org/namespaces/inkscape"
   width="570"
   height="570"
   viewBox="0 0 570.00001 570.00001"
   id="svg2"
   version="1.1"
   inkscape:version="0.91 r13725"
   sodipodi:docname="logo.svg"
   inkscape:export-filename="D:\Documents\My Projects\Aiyuung\logo.png"
   inkscape:export-xdpi="219.94737"
   inkscape:export-ydpi="219.94737">
  <defs
     id="defs4" />
  <sodipodi:namedview
     id="base"
     pagecolor="#ffffff"
     bordercolor="#666666"
     borderopacity="1.0"
     inkscape:pageopacity="0.0"
     inkscape:pageshadow="2"
     inkscape:zoom="0.98994949"
     inkscape:cx="152.07081"
     inkscape:cy="292.48818"
     inkscape:document-units="px"
     inkscape:current-layer="layer1"
     showgrid="false"
     showguides="true"
     inkscape:guide-bbox="true"
     inkscape:snap-nodes="true"
     inkscape:snap-bbox="true"
     inkscape:bbox-paths="true"
     inkscape:bbox-nodes="true"
     inkscape:snap-bbox-edge-midpoints="true"
     inkscape:snap-bbox-midpoints="true"
     inkscape:object-paths="true"
     inkscape:snap-intersection-paths="true"
     inkscape:object-nodes="true"
     inkscape:snap-smooth-nodes="true"
     inkscape:snap-midpoints="true"
     inkscape:snap-object-midpoints="true"
     inkscape:snap-center="true"
     inkscape:snap-text-baseline="true"
     inkscape:window-width="1920"
     inkscape:window-height="1018"
     inkscape:window-x="-8"
     inkscape:window-y="-8"
     inkscape:window-maximized="1"
     units="px" />
  <metadata
     id="metadata7">
    <rdf:RDF>
      <cc:Work
         rdf:about="">
        <dc:format>image/svg+xml</dc:format>
        <dc:type
           rdf:resource="http://purl.org/dc/dcmitype/StillImage" />
        <dc:title />
      </cc:Work>
    </rdf:RDF>
  </metadata>
  <g
     inkscape:label="Layer 1"
     inkscape:groupmode="layer"
     id="layer1"
     transform="translate(0,-482.36216)">
    <path
       style="fill:#c0392f;fill-opacity:1;fill-rule:evenodd;stroke:#c0392f;stroke-width:1px;stroke-linecap:butt;stroke-linejoin:miter;stroke-opacity:1"
       d="M 430.76562 69.4375 C 375.50422 156.05968 277.96883 93.883858 193.97852 126.58008 C 102.80688 162.0719 156.12109 261.58008 156.12109 261.58008 C 330.4068 164.43722 331.83594 302.29297 331.83594 302.29297 C 208.44867 285.07891 140.74725 332.63485 141.12109 405.15039 C 141.34706 448.98255 170.28001 509.40509 245.05078 510.15039 C 312.87789 510.82648 331.83594 485.99219 331.83594 485.99219 C 331.71235 498.69317 328.17773 510.37109 328.17773 510.37109 L 430.76562 510.40039 C 430.76562 510.40039 418.00032 477.1758 417.55078 303.00781 C 417.29291 203.0974 383.26562 188.72266 383.26562 188.72266 C 438.30951 170.62969 430.31649 136.53233 430.76562 69.4375 z M 227.97852 343.52539 A 49.497833 49.497833 0 0 1 277.47656 393.02344 A 49.497833 49.497833 0 0 1 227.97852 442.52148 A 49.497833 49.497833 0 0 1 178.48047 393.02344 A 49.497833 49.497833 0 0 1 227.97852 343.52539 z "
       transform="translate(0,482.36216)"
       id="path4164" />
  </g>
</svg>
